# MagicaVoxel @ Ephtracy

# group
o 

# material
mtllib pelle.mtl
usemtl palette

# normals
vn -1 0 0
vn 1 0 0
vn 0 0 1
vn 0 0 -1
vn 0 -1 0
vn 0 1 0

# texcoords
vt 0.177734 0.5
vt 0.939453 0.5
vt 0.951172 0.5

# verts
v -0.5 0.4 0
v -0.5 0.4 -0.1
v -0.5 0.5 0
v -0.5 0.5 -0.1
v -0.4 0.2 0
v -0.4 0.2 -0.1
v -0.4 0.4 0
v -0.4 0.4 -0.1
v -0.4 0.5 0
v -0.4 0.5 -0.1
v -0.4 0.6 0
v -0.4 0.6 -0.1
v -0.3 0.1 0
v -0.3 0.1 -0.1
v -0.3 0.2 0
v -0.3 0.2 -0.1
v -0.2 0 0
v -0.2 0 -0.1
v -0.2 0.1 0
v -0.2 0.1 -0.1
v -0.2 0.6 0
v -0.2 0.6 -0.1
v -0.2 2 0
v -0.2 2 -0.1
v 0 0 0
v 0 0 -0.1
v 0 0.1 0
v 0 0.1 -0.1
v 0 0.6 0
v 0 0.6 -0.1
v 0 2 0
v 0 2 -0.1
v 0.1 0.1 0
v 0.1 0.1 -0.1
v 0.1 0.2 0
v 0.1 0.2 -0.1
v 0.2 0.2 0
v 0.2 0.2 -0.1
v 0.2 0.4 0
v 0.2 0.4 -0.1
v 0.2 0.5 0
v 0.2 0.5 -0.1
v 0.2 0.6 0
v 0.2 0.6 -0.1
v 0.3 0.4 0
v 0.3 0.4 -0.1
v 0.3 0.5 0
v 0.3 0.5 -0.1
v -0.5 0.4 0
v -0.5 0.5 0
v -0.4 0.2 0
v -0.4 0.4 0
v -0.4 0.5 0
v -0.4 0.6 0
v -0.3 0.1 0
v -0.3 0.2 0
v -0.3 0.5 0
v -0.2 0 0
v -0.2 0.1 0
v -0.2 0.2 0
v -0.2 0.5 0
v -0.2 0.6 0
v -0.2 2 0
v 0 0 0
v 0 0.1 0
v 0 0.2 0
v 0 0.5 0
v 0 0.6 0
v 0 2 0
v 0.1 0.1 0
v 0.1 0.2 0
v 0.1 0.5 0
v 0.2 0.2 0
v 0.2 0.4 0
v 0.2 0.5 0
v 0.2 0.6 0
v 0.3 0.4 0
v 0.3 0.5 0
v -0.5 0.4 -0.1
v -0.5 0.5 -0.1
v -0.4 0.2 -0.1
v -0.4 0.4 -0.1
v -0.4 0.5 -0.1
v -0.4 0.6 -0.1
v -0.3 0.1 -0.1
v -0.3 0.2 -0.1
v -0.3 0.5 -0.1
v -0.2 0 -0.1
v -0.2 0.1 -0.1
v -0.2 0.2 -0.1
v -0.2 0.5 -0.1
v -0.2 0.6 -0.1
v -0.2 2 -0.1
v 0 0 -0.1
v 0 0.1 -0.1
v 0 0.2 -0.1
v 0 0.5 -0.1
v 0 0.6 -0.1
v 0 2 -0.1
v 0.1 0.1 -0.1
v 0.1 0.2 -0.1
v 0.1 0.5 -0.1
v 0.2 0.2 -0.1
v 0.2 0.4 -0.1
v 0.2 0.5 -0.1
v 0.2 0.6 -0.1
v 0.3 0.4 -0.1
v 0.3 0.5 -0.1
v -0.2 0 0
v 0 0 0
v -0.2 0 -0.1
v 0 0 -0.1
v -0.3 0.1 0
v -0.2 0.1 0
v 0 0.1 0
v 0.1 0.1 0
v -0.3 0.1 -0.1
v -0.2 0.1 -0.1
v 0 0.1 -0.1
v 0.1 0.1 -0.1
v -0.4 0.2 0
v -0.3 0.2 0
v 0.1 0.2 0
v 0.2 0.2 0
v -0.4 0.2 -0.1
v -0.3 0.2 -0.1
v 0.1 0.2 -0.1
v 0.2 0.2 -0.1
v -0.5 0.4 0
v -0.4 0.4 0
v 0.2 0.4 0
v 0.3 0.4 0
v -0.5 0.4 -0.1
v -0.4 0.4 -0.1
v 0.2 0.4 -0.1
v 0.3 0.4 -0.1
v -0.5 0.5 0
v -0.4 0.5 0
v 0.2 0.5 0
v 0.3 0.5 0
v -0.5 0.5 -0.1
v -0.4 0.5 -0.1
v 0.2 0.5 -0.1
v 0.3 0.5 -0.1
v -0.4 0.6 0
v -0.2 0.6 0
v 0 0.6 0
v 0.2 0.6 0
v -0.4 0.6 -0.1
v -0.2 0.6 -0.1
v 0 0.6 -0.1
v 0.2 0.6 -0.1
v -0.2 2 0
v 0 2 0
v -0.2 2 -0.1
v 0 2 -0.1

# faces
f 3/3/1 2/3/1 1/3/1
f 4/3/1 2/3/1 3/3/1
f 7/3/1 6/3/1 5/3/1
f 8/3/1 6/3/1 7/3/1
f 11/3/1 10/3/1 9/3/1
f 12/3/1 10/3/1 11/3/1
f 15/3/1 14/3/1 13/3/1
f 16/3/1 14/3/1 15/3/1
f 19/3/1 18/3/1 17/3/1
f 20/3/1 18/3/1 19/3/1
f 23/1/1 22/1/1 21/1/1
f 24/1/1 22/1/1 23/1/1
f 25/3/2 26/3/2 27/3/2
f 27/3/2 26/3/2 28/3/2
f 29/1/2 30/1/2 31/1/2
f 31/1/2 30/1/2 32/1/2
f 33/3/2 34/3/2 35/3/2
f 35/3/2 34/3/2 36/3/2
f 37/3/2 38/3/2 39/3/2
f 39/3/2 38/3/2 40/3/2
f 41/3/2 42/3/2 43/3/2
f 43/3/2 42/3/2 44/3/2
f 45/3/2 46/3/2 47/3/2
f 47/3/2 46/3/2 48/3/2
f 52/3/3 50/3/3 49/3/3
f 53/3/3 50/3/3 52/3/3
f 56/3/3 52/3/3 51/3/3
f 56/3/3 54/3/3 53/3/3
f 56/3/3 53/3/3 52/3/3
f 57/3/3 54/3/3 56/3/3
f 59/3/3 56/3/3 55/3/3
f 60/2/3 57/2/3 56/2/3
f 60/3/3 56/3/3 59/3/3
f 61/3/3 54/3/3 57/3/3
f 61/2/3 57/2/3 60/2/3
f 62/3/3 54/3/3 61/3/3
f 64/3/3 59/3/3 58/3/3
f 65/2/3 60/2/3 59/2/3
f 65/3/3 59/3/3 64/3/3
f 66/3/3 61/3/3 60/3/3
f 66/2/3 60/2/3 65/2/3
f 67/1/3 63/1/3 62/1/3
f 67/3/3 61/3/3 66/3/3
f 67/1/3 62/1/3 61/1/3
f 68/1/3 63/1/3 67/1/3
f 69/1/3 63/1/3 68/1/3
f 70/3/3 66/3/3 65/3/3
f 71/2/3 67/2/3 66/2/3
f 71/3/3 66/3/3 70/3/3
f 72/3/3 68/3/3 67/3/3
f 72/2/3 67/2/3 71/2/3
f 73/3/3 72/3/3 71/3/3
f 74/3/3 72/3/3 73/3/3
f 75/3/3 68/3/3 72/3/3
f 75/3/3 72/3/3 74/3/3
f 76/3/3 68/3/3 75/3/3
f 77/3/3 75/3/3 74/3/3
f 78/3/3 75/3/3 77/3/3
f 79/3/4 80/3/4 82/3/4
f 82/3/4 80/3/4 83/3/4
f 81/3/4 82/3/4 86/3/4
f 83/3/4 84/3/4 86/3/4
f 82/3/4 83/3/4 86/3/4
f 86/3/4 84/3/4 87/3/4
f 85/3/4 86/3/4 89/3/4
f 86/2/4 87/2/4 90/2/4
f 89/3/4 86/3/4 90/3/4
f 87/3/4 84/3/4 91/3/4
f 90/2/4 87/2/4 91/2/4
f 91/3/4 84/3/4 92/3/4
f 88/3/4 89/3/4 94/3/4
f 89/2/4 90/2/4 95/2/4
f 94/3/4 89/3/4 95/3/4
f 90/3/4 91/3/4 96/3/4
f 95/2/4 90/2/4 96/2/4
f 92/1/4 93/1/4 97/1/4
f 96/3/4 91/3/4 97/3/4
f 91/1/4 92/1/4 97/1/4
f 97/1/4 93/1/4 98/1/4
f 98/1/4 93/1/4 99/1/4
f 95/3/4 96/3/4 100/3/4
f 96/2/4 97/2/4 101/2/4
f 100/3/4 96/3/4 101/3/4
f 97/3/4 98/3/4 102/3/4
f 101/2/4 97/2/4 102/2/4
f 101/3/4 102/3/4 103/3/4
f 103/3/4 102/3/4 104/3/4
f 102/3/4 98/3/4 105/3/4
f 104/3/4 102/3/4 105/3/4
f 105/3/4 98/3/4 106/3/4
f 104/3/4 105/3/4 107/3/4
f 107/3/4 105/3/4 108/3/4
f 111/3/5 110/3/5 109/3/5
f 112/3/5 110/3/5 111/3/5
f 117/3/5 114/3/5 113/3/5
f 118/3/5 114/3/5 117/3/5
f 119/3/5 116/3/5 115/3/5
f 120/3/5 116/3/5 119/3/5
f 125/3/5 122/3/5 121/3/5
f 126/3/5 122/3/5 125/3/5
f 127/3/5 124/3/5 123/3/5
f 128/3/5 124/3/5 127/3/5
f 133/3/5 130/3/5 129/3/5
f 134/3/5 130/3/5 133/3/5
f 135/3/5 132/3/5 131/3/5
f 136/3/5 132/3/5 135/3/5
f 137/3/6 138/3/6 141/3/6
f 141/3/6 138/3/6 142/3/6
f 139/3/6 140/3/6 143/3/6
f 143/3/6 140/3/6 144/3/6
f 145/3/6 146/3/6 149/3/6
f 149/3/6 146/3/6 150/3/6
f 147/3/6 148/3/6 151/3/6
f 151/3/6 148/3/6 152/3/6
f 153/1/6 154/1/6 155/1/6
f 155/1/6 154/1/6 156/1/6
