# MagicaVoxel @ Ephtracy

# group
o 

# material
mtllib fleur verte.mtl
usemtl palette

# normals
vn -1 0 0
vn 1 0 0
vn 0 0 1
vn 0 0 -1
vn 0 -1 0
vn 0 1 0

# texcoords
vt 0.427734 0.5
vt 0.587891 0.5
vt 0.591797 0.5

# verts
v -0.4 0.1 0.2
v -0.4 0.1 0.1
v -0.4 0.2 0.2
v -0.4 0.2 0.1
v -0.3 0.6 0
v -0.3 0.6 -0.1
v -0.3 0.7 0
v -0.3 0.7 -0.1
v -0.2 0 0.2
v -0.2 0 0.1
v -0.2 0.1 0.2
v -0.2 0.1 0.1
v -0.2 0.5 0.1
v -0.2 0.5 -0.1
v -0.2 0.6 0.1
v -0.2 0.6 0
v -0.2 0.6 -0.1
v -0.2 0.6 -0.2
v -0.2 0.7 0.1
v -0.2 0.7 0
v -0.2 0.7 -0.1
v -0.2 0.7 -0.2
v -0.2 0.8 0.1
v -0.2 0.8 -0.1
v -0.1 0 0.1
v -0.1 0 0
v -0.1 0.1 0.4
v -0.1 0.1 0.3
v -0.1 0.1 0.2
v -0.1 0.1 0.1
v -0.1 0.1 0
v -0.1 0.2 0.4
v -0.1 0.2 0.3
v -0.1 0.2 0.2
v -0.1 0.3 0.3
v -0.1 0.3 0.2
v -0.1 0.4 0
v -0.1 0.4 -0.1
v -0.1 0.5 0.1
v -0.1 0.5 0
v -0.1 0.5 -0.1
v -0.1 0.5 -0.2
v -0.1 0.6 0.1
v -0.1 0.6 0
v -0.1 0.6 -0.1
v -0.1 0.6 -0.2
v -0.1 0.7 0.2
v -0.1 0.7 0.1
v -0.1 0.7 0
v -0.1 0.7 -0.1
v -0.1 0.7 -0.2
v -0.1 0.8 0
v -0.1 0.8 -0.1
v -0.1 0.8 -0.2
v -0.1 0.9 0
v -0.1 0.9 -0.1
v 0 0 0.4
v 0 0 0.3
v 0 0.1 0.4
v 0 0.1 0.3
v 0 0.4 0.3
v 0 0.4 0.2
v 0 0.5 0.3
v 0 0.5 0.2
v 0 0.5 0.1
v 0 0.5 0
v 0 0.6 0.1
v 0 0.6 0
v 0 0.6 -0.1
v 0 0.6 -0.2
v 0 0.7 0.1
v 0 0.7 0
v 0 0.7 -0.1
v 0 0.7 -0.2
v 0 0.8 0.1
v 0 0.8 0
v 0.1 0.1 0.1
v 0.1 0.1 0
v 0.1 0.2 0.1
v 0.1 0.2 0
v -0.2 0.1 0.2
v -0.2 0.1 0.1
v -0.2 0.2 0.2
v -0.2 0.2 0.1
v -0.1 0.5 0.1
v -0.1 0.5 0
v -0.1 0.6 0.1
v -0.1 0.6 0
v -0.1 0.6 -0.1
v -0.1 0.6 -0.2
v -0.1 0.7 0.1
v -0.1 0.7 0
v -0.1 0.7 -0.1
v -0.1 0.7 -0.2
v -0.1 0.8 0.1
v -0.1 0.8 0
v 0 0 0.1
v 0 0 0
v 0 0.1 0.4
v 0 0.1 0.3
v 0 0.1 0.2
v 0 0.1 0.1
v 0 0.1 0
v 0 0.2 0.4
v 0 0.2 0.3
v 0 0.2 0.2
v 0 0.3 0.3
v 0 0.3 0.2
v 0 0.4 0.2
v 0 0.4 0
v 0 0.4 -0.1
v 0 0.5 0.2
v 0 0.5 0.1
v 0 0.5 0
v 0 0.5 -0.1
v 0 0.5 -0.2
v 0 0.6 0.1
v 0 0.6 0
v 0 0.6 -0.1
v 0 0.6 -0.2
v 0 0.7 0.2
v 0 0.7 0.1
v 0 0.7 0
v 0 0.7 -0.1
v 0 0.7 -0.2
v 0 0.8 0
v 0 0.8 -0.1
v 0 0.8 -0.2
v 0 0.9 0
v 0 0.9 -0.1
v 0.1 0 0.4
v 0.1 0 0.3
v 0.1 0 0.2
v 0.1 0 0.1
v 0.1 0.1 0.4
v 0.1 0.1 0.3
v 0.1 0.1 0.2
v 0.1 0.1 0.1
v 0.1 0.4 0.3
v 0.1 0.4 0.2
v 0.1 0.5 0.3
v 0.1 0.5 0.2
v 0.1 0.5 0.1
v 0.1 0.5 -0.1
v 0.1 0.6 0.1
v 0.1 0.6 0
v 0.1 0.6 -0.1
v 0.1 0.6 -0.2
v 0.1 0.7 0.1
v 0.1 0.7 0
v 0.1 0.7 -0.1
v 0.1 0.7 -0.2
v 0.1 0.8 0.1
v 0.1 0.8 -0.1
v 0.2 0.1 0.1
v 0.2 0.1 0
v 0.2 0.2 0.1
v 0.2 0.2 0
v 0.2 0.6 0
v 0.2 0.6 -0.1
v 0.2 0.7 0
v 0.2 0.7 -0.1
v -0.1 0.1 0.4
v -0.1 0.2 0.4
v 0 0 0.4
v 0 0.1 0.4
v 0 0.2 0.4
v 0.1 0 0.4
v 0.1 0.1 0.4
v -0.1 0.2 0.3
v -0.1 0.3 0.3
v 0 0.2 0.3
v 0 0.3 0.3
v 0 0.4 0.3
v 0 0.5 0.3
v 0.1 0.4 0.3
v 0.1 0.5 0.3
v -0.4 0.1 0.2
v -0.4 0.2 0.2
v -0.2 0 0.2
v -0.2 0.1 0.2
v -0.2 0.2 0.2
v -0.1 0.1 0.2
v -0.1 0.2 0.2
v -0.1 0.3 0.2
v -0.1 0.7 0.2
v 0 0.1 0.2
v 0 0.2 0.2
v 0 0.3 0.2
v 0 0.4 0.2
v 0 0.5 0.2
v 0 0.7 0.2
v 0.1 0 0.2
v 0.1 0.1 0.2
v -0.2 0.5 0.1
v -0.2 0.6 0.1
v -0.2 0.7 0.1
v -0.2 0.8 0.1
v -0.1 0.5 0.1
v -0.1 0.6 0.1
v -0.1 0.7 0.1
v -0.1 0.8 0.1
v 0 0.5 0.1
v 0 0.6 0.1
v 0 0.7 0.1
v 0 0.8 0.1
v 0.1 0.1 0.1
v 0.1 0.2 0.1
v 0.1 0.5 0.1
v 0.1 0.6 0.1
v 0.1 0.7 0.1
v 0.1 0.8 0.1
v 0.2 0.1 0.1
v 0.2 0.2 0.1
v -0.3 0.6 0
v -0.3 0.7 0
v -0.2 0.6 0
v -0.2 0.7 0
v -0.1 0.4 0
v -0.1 0.5 0
v -0.1 0.6 0
v -0.1 0.7 0
v -0.1 0.8 0
v -0.1 0.9 0
v 0 0.4 0
v 0 0.5 0
v 0 0.6 0
v 0 0.7 0
v 0 0.8 0
v 0 0.9 0
v 0.1 0.6 0
v 0.1 0.7 0
v 0.2 0.6 0
v 0.2 0.7 0
v -0.1 0.1 0.3
v -0.1 0.2 0.3
v 0 0 0.3
v 0 0.1 0.3
v 0 0.2 0.3
v 0.1 0 0.3
v 0.1 0.1 0.3
v 0 0.4 0.2
v 0 0.5 0.2
v 0.1 0.4 0.2
v 0.1 0.5 0.2
v -0.4 0.1 0.1
v -0.4 0.2 0.1
v -0.2 0 0.1
v -0.2 0.1 0.1
v -0.2 0.2 0.1
v -0.1 0 0.1
v -0.1 0.1 0.1
v -0.1 0.5 0.1
v -0.1 0.6 0.1
v 0 0 0.1
v 0 0.1 0.1
v 0 0.5 0.1
v 0 0.6 0.1
v 0.1 0 0.1
v 0.1 0.1 0.1
v -0.1 0 0
v -0.1 0.1 0
v 0 0 0
v 0 0.1 0
v 0.1 0.1 0
v 0.1 0.2 0
v 0.2 0.1 0
v 0.2 0.2 0
v -0.3 0.6 -0.1
v -0.3 0.7 -0.1
v -0.2 0.5 -0.1
v -0.2 0.6 -0.1
v -0.2 0.7 -0.1
v -0.2 0.8 -0.1
v -0.1 0.4 -0.1
v -0.1 0.5 -0.1
v -0.1 0.6 -0.1
v -0.1 0.7 -0.1
v -0.1 0.8 -0.1
v -0.1 0.9 -0.1
v 0 0.4 -0.1
v 0 0.5 -0.1
v 0 0.6 -0.1
v 0 0.7 -0.1
v 0 0.8 -0.1
v 0 0.9 -0.1
v 0.1 0.5 -0.1
v 0.1 0.6 -0.1
v 0.1 0.7 -0.1
v 0.1 0.8 -0.1
v 0.2 0.6 -0.1
v 0.2 0.7 -0.1
v -0.2 0.6 -0.2
v -0.2 0.7 -0.2
v -0.1 0.5 -0.2
v -0.1 0.6 -0.2
v -0.1 0.7 -0.2
v -0.1 0.8 -0.2
v 0 0.5 -0.2
v 0 0.6 -0.2
v 0 0.7 -0.2
v 0 0.8 -0.2
v 0.1 0.6 -0.2
v 0.1 0.7 -0.2
v 0 0 0.4
v 0.1 0 0.4
v 0 0 0.3
v 0.1 0 0.3
v -0.2 0 0.2
v 0.1 0 0.2
v -0.2 0 0.1
v -0.1 0 0.1
v 0 0 0.1
v 0.1 0 0.1
v -0.1 0 0
v 0 0 0
v -0.1 0.1 0.4
v 0 0.1 0.4
v -0.1 0.1 0.3
v 0 0.1 0.3
v -0.4 0.1 0.2
v -0.2 0.1 0.2
v -0.4 0.1 0.1
v -0.2 0.1 0.1
v 0.1 0.1 0.1
v 0.2 0.1 0.1
v 0.1 0.1 0
v 0.2 0.1 0
v -0.1 0.2 0.3
v 0 0.2 0.3
v -0.1 0.2 0.2
v 0 0.2 0.2
v 0 0.4 0.3
v 0.1 0.4 0.3
v 0 0.4 0.2
v 0.1 0.4 0.2
v -0.1 0.4 0
v 0 0.4 0
v -0.1 0.4 -0.1
v 0 0.4 -0.1
v -0.2 0.5 0.1
v -0.1 0.5 0.1
v 0 0.5 0.1
v 0.1 0.5 0.1
v -0.1 0.5 0
v 0 0.5 0
v -0.2 0.5 -0.1
v -0.1 0.5 -0.1
v 0 0.5 -0.1
v 0.1 0.5 -0.1
v -0.1 0.5 -0.2
v 0 0.5 -0.2
v -0.1 0.6 0.1
v 0 0.6 0.1
v -0.3 0.6 0
v -0.2 0.6 0
v -0.1 0.6 0
v 0 0.6 0
v 0.1 0.6 0
v 0.2 0.6 0
v -0.3 0.6 -0.1
v -0.2 0.6 -0.1
v -0.1 0.6 -0.1
v 0 0.6 -0.1
v 0.1 0.6 -0.1
v 0.2 0.6 -0.1
v -0.2 0.6 -0.2
v -0.1 0.6 -0.2
v 0 0.6 -0.2
v 0.1 0.6 -0.2
v -0.2 0.7 0.1
v -0.1 0.7 0.1
v 0 0.7 0.1
v 0.1 0.7 0.1
v -0.2 0.7 0
v -0.1 0.7 0
v 0 0.7 0
v 0.1 0.7 0
v -0.1 0.7 -0.1
v 0 0.7 -0.1
v -0.1 0.7 -0.2
v 0 0.7 -0.2
v 0 0.1 0.4
v 0.1 0.1 0.4
v 0 0.1 0.3
v 0.1 0.1 0.3
v -0.2 0.1 0.2
v -0.1 0.1 0.2
v 0 0.1 0.2
v 0.1 0.1 0.2
v -0.2 0.1 0.1
v -0.1 0.1 0.1
v 0 0.1 0.1
v 0.1 0.1 0.1
v -0.1 0.1 0
v 0 0.1 0
v -0.1 0.2 0.4
v 0 0.2 0.4
v -0.1 0.2 0.3
v 0 0.2 0.3
v -0.4 0.2 0.2
v -0.2 0.2 0.2
v -0.4 0.2 0.1
v -0.2 0.2 0.1
v 0.1 0.2 0.1
v 0.2 0.2 0.1
v 0.1 0.2 0
v 0.2 0.2 0
v -0.1 0.3 0.3
v 0 0.3 0.3
v -0.1 0.3 0.2
v 0 0.3 0.2
v 0 0.5 0.3
v 0.1 0.5 0.3
v 0 0.5 0.2
v 0.1 0.5 0.2
v -0.2 0.6 0.1
v -0.1 0.6 0.1
v 0 0.6 0.1
v 0.1 0.6 0.1
v -0.2 0.6 0
v -0.1 0.6 0
v 0 0.6 0
v 0.1 0.6 0
v -0.1 0.6 -0.1
v 0 0.6 -0.1
v -0.1 0.6 -0.2
v 0 0.6 -0.2
v -0.1 0.7 0.2
v 0 0.7 0.2
v -0.1 0.7 0.1
v 0 0.7 0.1
v -0.3 0.7 0
v -0.2 0.7 0
v -0.1 0.7 0
v 0 0.7 0
v 0.1 0.7 0
v 0.2 0.7 0
v -0.3 0.7 -0.1
v -0.2 0.7 -0.1
v -0.1 0.7 -0.1
v 0 0.7 -0.1
v 0.1 0.7 -0.1
v 0.2 0.7 -0.1
v -0.2 0.7 -0.2
v -0.1 0.7 -0.2
v 0 0.7 -0.2
v 0.1 0.7 -0.2
v -0.2 0.8 0.1
v -0.1 0.8 0.1
v 0 0.8 0.1
v 0.1 0.8 0.1
v -0.1 0.8 0
v 0 0.8 0
v -0.2 0.8 -0.1
v -0.1 0.8 -0.1
v 0 0.8 -0.1
v 0.1 0.8 -0.1
v -0.1 0.8 -0.2
v 0 0.8 -0.2
v -0.1 0.9 0
v 0 0.9 0
v -0.1 0.9 -0.1
v 0 0.9 -0.1

# faces
f 3/3/1 2/3/1 1/3/1
f 4/3/1 2/3/1 3/3/1
f 7/2/1 6/2/1 5/2/1
f 8/2/1 6/2/1 7/2/1
f 11/3/1 10/3/1 9/3/1
f 12/3/1 10/3/1 11/3/1
f 15/2/1 14/2/1 13/2/1
f 16/2/1 14/2/1 15/2/1
f 17/2/1 14/2/1 16/2/1
f 21/2/1 18/2/1 17/2/1
f 22/2/1 18/2/1 21/2/1
f 23/2/1 20/2/1 19/2/1
f 23/2/1 21/2/1 20/2/1
f 24/2/1 21/2/1 23/2/1
f 30/3/1 26/3/1 25/3/1
f 31/3/1 26/3/1 30/3/1
f 32/3/1 28/3/1 27/3/1
f 33/3/1 28/3/1 32/3/1
f 34/3/1 30/3/1 29/3/1
f 35/3/1 34/3/1 33/3/1
f 36/3/1 30/3/1 34/3/1
f 36/3/1 34/3/1 35/3/1
f 39/3/1 30/3/1 36/3/1
f 40/2/1 38/2/1 37/2/1
f 41/2/1 38/2/1 40/2/1
f 43/3/1 39/3/1 36/3/1
f 45/2/1 42/2/1 41/2/1
f 46/2/1 42/2/1 45/2/1
f 47/3/1 44/3/1 43/3/1
f 47/3/1 43/3/1 36/3/1
f 48/3/1 44/3/1 47/3/1
f 49/3/1 44/3/1 48/3/1
f 53/2/1 51/2/1 50/2/1
f 54/2/1 51/2/1 53/2/1
f 55/2/1 53/2/1 52/2/1
f 56/2/1 53/2/1 55/2/1
f 59/3/1 58/3/1 57/3/1
f 60/3/1 58/3/1 59/3/1
f 63/3/1 62/3/1 61/3/1
f 64/3/1 62/3/1 63/3/1
f 67/2/1 66/2/1 65/2/1
f 68/2/1 66/2/1 67/2/1
f 73/2/1 70/2/1 69/2/1
f 74/2/1 70/2/1 73/2/1
f 75/2/1 72/2/1 71/2/1
f 76/2/1 72/2/1 75/2/1
f 79/3/1 78/3/1 77/3/1
f 80/3/1 78/3/1 79/3/1
f 81/3/2 82/3/2 83/3/2
f 83/3/2 82/3/2 84/3/2
f 85/2/2 86/2/2 87/2/2
f 87/2/2 86/2/2 88/2/2
f 89/2/2 90/2/2 93/2/2
f 93/2/2 90/2/2 94/2/2
f 91/2/2 92/2/2 95/2/2
f 95/2/2 92/2/2 96/2/2
f 97/3/2 98/3/2 102/3/2
f 102/3/2 98/3/2 103/3/2
f 99/3/2 100/3/2 104/3/2
f 104/3/2 100/3/2 105/3/2
f 101/3/2 102/3/2 106/3/2
f 105/3/2 106/3/2 107/3/2
f 106/3/2 102/3/2 108/3/2
f 107/3/2 106/3/2 108/3/2
f 108/3/2 102/3/2 109/3/2
f 109/3/2 102/3/2 112/3/2
f 112/3/2 102/3/2 113/3/2
f 110/2/2 111/2/2 114/2/2
f 114/2/2 111/2/2 115/2/2
f 112/3/2 113/3/2 117/3/2
f 115/2/2 116/2/2 119/2/2
f 119/2/2 116/2/2 120/2/2
f 117/3/2 118/3/2 121/3/2
f 112/3/2 117/3/2 121/3/2
f 121/3/2 118/3/2 122/3/2
f 122/3/2 118/3/2 123/3/2
f 124/2/2 125/2/2 127/2/2
f 127/2/2 125/2/2 128/2/2
f 126/2/2 127/2/2 129/2/2
f 129/2/2 127/2/2 130/2/2
f 131/3/2 132/3/2 135/3/2
f 135/3/2 132/3/2 136/3/2
f 133/3/2 134/3/2 137/3/2
f 137/3/2 134/3/2 138/3/2
f 139/3/2 140/3/2 141/3/2
f 141/3/2 140/3/2 142/3/2
f 143/2/2 144/2/2 145/2/2
f 145/2/2 144/2/2 146/2/2
f 146/2/2 144/2/2 147/2/2
f 147/2/2 148/2/2 151/2/2
f 151/2/2 148/2/2 152/2/2
f 149/2/2 150/2/2 153/2/2
f 150/2/2 151/2/2 153/2/2
f 153/2/2 151/2/2 154/2/2
f 155/3/2 156/3/2 157/3/2
f 157/3/2 156/3/2 158/3/2
f 159/2/2 160/2/2 161/2/2
f 161/2/2 160/2/2 162/2/2
f 166/3/3 164/3/3 163/3/3
f 167/3/3 164/3/3 166/3/3
f 168/3/3 166/3/3 165/3/3
f 169/3/3 166/3/3 168/3/3
f 172/3/3 171/3/3 170/3/3
f 173/3/3 171/3/3 172/3/3
f 176/3/3 175/3/3 174/3/3
f 177/3/3 175/3/3 176/3/3
f 181/3/3 179/3/3 178/3/3
f 182/3/3 179/3/3 181/3/3
f 183/3/3 181/3/3 180/3/3
f 187/3/3 184/3/3 183/3/3
f 187/3/3 183/3/3 180/3/3
f 188/3/3 184/3/3 187/3/3
f 189/3/3 186/3/3 185/3/3
f 190/3/3 186/3/3 189/3/3
f 191/3/3 186/3/3 190/3/3
f 192/3/3 186/3/3 191/3/3
f 193/3/3 187/3/3 180/3/3
f 194/3/3 187/3/3 193/3/3
f 199/2/3 196/2/3 195/2/3
f 200/2/3 196/2/3 199/2/3
f 201/2/3 198/2/3 197/2/3
f 202/2/3 198/2/3 201/2/3
f 209/2/3 204/2/3 203/2/3
f 210/2/3 204/2/3 209/2/3
f 211/2/3 206/2/3 205/2/3
f 212/2/3 206/2/3 211/2/3
f 213/3/3 208/3/3 207/3/3
f 214/3/3 208/3/3 213/3/3
f 217/2/3 216/2/3 215/2/3
f 218/2/3 216/2/3 217/2/3
f 221/2/3 218/2/3 217/2/3
f 222/2/3 218/2/3 221/2/3
f 225/2/3 220/2/3 219/2/3
f 225/2/3 221/2/3 220/2/3
f 226/2/3 221/2/3 225/2/3
f 227/2/3 221/2/3 226/2/3
f 228/2/3 224/2/3 223/2/3
f 228/2/3 223/2/3 222/2/3
f 229/2/3 224/2/3 228/2/3
f 230/2/3 224/2/3 229/2/3
f 231/2/3 228/2/3 227/2/3
f 232/2/3 228/2/3 231/2/3
f 233/2/3 232/2/3 231/2/3
f 234/2/3 232/2/3 233/2/3
f 235/3/4 236/3/4 238/3/4
f 238/3/4 236/3/4 239/3/4
f 237/3/4 238/3/4 240/3/4
f 240/3/4 238/3/4 241/3/4
f 242/3/4 243/3/4 244/3/4
f 244/3/4 243/3/4 245/3/4
f 246/3/4 247/3/4 249/3/4
f 249/3/4 247/3/4 250/3/4
f 248/3/4 249/3/4 251/3/4
f 251/3/4 249/3/4 252/3/4
f 253/3/4 254/3/4 256/3/4
f 252/3/4 253/3/4 256/3/4
f 256/3/4 254/3/4 257/3/4
f 257/3/4 254/3/4 258/3/4
f 255/3/4 256/3/4 259/3/4
f 259/3/4 256/3/4 260/3/4
f 261/3/4 262/3/4 263/3/4
f 263/3/4 262/3/4 264/3/4
f 265/3/4 266/3/4 267/3/4
f 267/3/4 266/3/4 268/3/4
f 269/2/4 270/2/4 272/2/4
f 272/2/4 270/2/4 273/2/4
f 271/2/4 272/2/4 276/2/4
f 276/2/4 272/2/4 277/2/4
f 273/2/4 274/2/4 278/2/4
f 278/2/4 274/2/4 279/2/4
f 275/2/4 276/2/4 281/2/4
f 281/2/4 276/2/4 282/2/4
f 277/1/4 278/1/4 283/1/4
f 283/1/4 278/1/4 284/1/4
f 279/2/4 280/2/4 285/2/4
f 285/2/4 280/2/4 286/2/4
f 282/2/4 283/2/4 287/2/4
f 287/2/4 283/2/4 288/2/4
f 284/2/4 285/2/4 289/2/4
f 289/2/4 285/2/4 290/2/4
f 288/2/4 289/2/4 291/2/4
f 291/2/4 289/2/4 292/2/4
f 293/2/4 294/2/4 296/2/4
f 296/2/4 294/2/4 297/2/4
f 295/2/4 296/2/4 299/2/4
f 299/2/4 296/2/4 300/2/4
f 297/2/4 298/2/4 301/2/4
f 301/2/4 298/2/4 302/2/4
f 300/2/4 301/2/4 303/2/4
f 303/2/4 301/2/4 304/2/4
f 307/3/5 306/3/5 305/3/5
f 308/3/5 306/3/5 307/3/5
f 311/3/5 310/3/5 309/3/5
f 312/3/5 310/3/5 311/3/5
f 313/3/5 310/3/5 312/3/5
f 314/3/5 310/3/5 313/3/5
f 315/3/5 313/3/5 312/3/5
f 316/3/5 313/3/5 315/3/5
f 319/3/5 318/3/5 317/3/5
f 320/3/5 318/3/5 319/3/5
f 323/3/5 322/3/5 321/3/5
f 324/3/5 322/3/5 323/3/5
f 327/3/5 326/3/5 325/3/5
f 328/3/5 326/3/5 327/3/5
f 331/3/5 330/3/5 329/3/5
f 332/3/5 330/3/5 331/3/5
f 335/3/5 334/3/5 333/3/5
f 336/3/5 334/3/5 335/3/5
f 339/2/5 338/2/5 337/2/5
f 340/2/5 338/2/5 339/2/5
f 345/2/5 342/2/5 341/2/5
f 346/2/5 344/2/5 343/2/5
f 347/2/5 345/2/5 341/2/5
f 348/2/5 345/2/5 347/2/5
f 349/2/5 344/2/5 346/2/5
f 350/2/5 344/2/5 349/2/5
f 351/2/5 349/2/5 348/2/5
f 352/2/5 349/2/5 351/2/5
f 357/3/5 354/3/5 353/3/5
f 358/3/5 354/3/5 357/3/5
f 361/2/5 356/2/5 355/2/5
f 362/2/5 356/2/5 361/2/5
f 365/2/5 360/2/5 359/2/5
f 366/2/5 360/2/5 365/2/5
f 367/2/5 363/2/5 362/2/5
f 368/2/5 363/2/5 367/2/5
f 369/2/5 365/2/5 364/2/5
f 370/2/5 365/2/5 369/2/5
f 375/2/5 372/2/5 371/2/5
f 376/2/5 372/2/5 375/2/5
f 377/2/5 374/2/5 373/2/5
f 378/2/5 374/2/5 377/2/5
f 381/2/5 380/2/5 379/2/5
f 382/2/5 380/2/5 381/2/5
f 383/3/6 384/3/6 385/3/6
f 385/3/6 384/3/6 386/3/6
f 387/3/6 388/3/6 391/3/6
f 391/3/6 388/3/6 392/3/6
f 389/3/6 390/3/6 393/3/6
f 393/3/6 390/3/6 394/3/6
f 392/3/6 393/3/6 395/3/6
f 395/3/6 393/3/6 396/3/6
f 397/3/6 398/3/6 399/3/6
f 399/3/6 398/3/6 400/3/6
f 401/3/6 402/3/6 403/3/6
f 403/3/6 402/3/6 404/3/6
f 405/3/6 406/3/6 407/3/6
f 407/3/6 406/3/6 408/3/6
f 409/3/6 410/3/6 411/3/6
f 411/3/6 410/3/6 412/3/6
f 413/3/6 414/3/6 415/3/6
f 415/3/6 414/3/6 416/3/6
f 417/2/6 418/2/6 421/2/6
f 421/2/6 418/2/6 422/2/6
f 419/2/6 420/2/6 423/2/6
f 423/2/6 420/2/6 424/2/6
f 425/2/6 426/2/6 427/2/6
f 427/2/6 426/2/6 428/2/6
f 429/3/6 430/3/6 431/3/6
f 431/3/6 430/3/6 432/3/6
f 431/3/6 432/3/6 435/3/6
f 435/3/6 432/3/6 436/3/6
f 433/2/6 434/2/6 439/2/6
f 439/2/6 434/2/6 440/2/6
f 437/2/6 438/2/6 443/2/6
f 443/2/6 438/2/6 444/2/6
f 440/2/6 441/2/6 445/2/6
f 445/2/6 441/2/6 446/2/6
f 442/2/6 443/2/6 447/2/6
f 447/2/6 443/2/6 448/2/6
f 449/2/6 450/2/6 453/2/6
f 451/2/6 452/2/6 454/2/6
f 449/2/6 453/2/6 455/2/6
f 455/2/6 453/2/6 456/2/6
f 454/2/6 452/2/6 457/2/6
f 457/2/6 452/2/6 458/2/6
f 456/2/6 457/2/6 459/2/6
f 459/2/6 457/2/6 460/2/6
f 461/2/6 462/2/6 463/2/6
f 463/2/6 462/2/6 464/2/6
